<mxfile host="app.diagrams.net" agent="Mozilla/5.0 (Windows NT 10.0; Win64; x64) AppleWebKit/537.36 (KHTML, like Gecko) Chrome/122.0.0.0 Safari/537.36" version="26.2.9">
  <diagram name="1 oldal" id="ohfmbEw8cCkdrReCNdVJ">
    <mxGraphModel dx="3423" dy="1365" grid="1" gridSize="10" guides="1" tooltips="1" connect="1" arrows="1" fold="1" page="1" pageScale="1" pageWidth="827" pageHeight="1169" math="0" shadow="0">
      <root>
        <mxCell id="0" />
        <mxCell id="1" parent="0" />
        <mxCell id="IHHWrMH8fhH2cyxZNXDR-1367" value="" style="rounded=0;whiteSpace=wrap;html=1;" vertex="1" parent="1">
          <mxGeometry x="-710" y="390" width="1080" height="480" as="geometry" />
        </mxCell>
        <mxCell id="IHHWrMH8fhH2cyxZNXDR-1368" value="" style="rounded=0;whiteSpace=wrap;html=1;" vertex="1" parent="1">
          <mxGeometry x="-710" y="390" width="1080" height="120" as="geometry" />
        </mxCell>
        <mxCell id="IHHWrMH8fhH2cyxZNXDR-1369" style="edgeStyle=orthogonalEdgeStyle;rounded=0;orthogonalLoop=1;jettySize=auto;html=1;exitX=0.5;exitY=0;exitDx=0;exitDy=0;" edge="1" parent="1" source="IHHWrMH8fhH2cyxZNXDR-1370">
          <mxGeometry relative="1" as="geometry">
            <mxPoint x="-170" y="850" as="targetPoint" />
          </mxGeometry>
        </mxCell>
        <mxCell id="IHHWrMH8fhH2cyxZNXDR-1370" value="" style="rounded=0;whiteSpace=wrap;html=1;" vertex="1" parent="1">
          <mxGeometry x="-710" y="850" width="1080" height="20" as="geometry" />
        </mxCell>
        <mxCell id="IHHWrMH8fhH2cyxZNXDR-1371" value="" style="rounded=0;whiteSpace=wrap;html=1;" vertex="1" parent="1">
          <mxGeometry x="270" y="390" width="100" height="120" as="geometry" />
        </mxCell>
        <mxCell id="IHHWrMH8fhH2cyxZNXDR-1372" value="Kezdőlap" style="rounded=0;whiteSpace=wrap;html=1;" vertex="1" parent="1">
          <mxGeometry x="-610" y="420" width="80" height="60" as="geometry" />
        </mxCell>
        <mxCell id="IHHWrMH8fhH2cyxZNXDR-1373" value="" style="rounded=0;whiteSpace=wrap;html=1;" vertex="1" parent="1">
          <mxGeometry y="450" width="120" height="60" as="geometry" />
        </mxCell>
        <mxCell id="IHHWrMH8fhH2cyxZNXDR-1374" value="Zenék" style="rounded=0;whiteSpace=wrap;html=1;" vertex="1" parent="1">
          <mxGeometry x="-510" y="420" width="60" height="60" as="geometry" />
        </mxCell>
        <mxCell id="IHHWrMH8fhH2cyxZNXDR-1375" value="" style="rounded=0;whiteSpace=wrap;html=1;" vertex="1" parent="1">
          <mxGeometry x="-150" y="450" width="120" height="60" as="geometry" />
        </mxCell>
        <mxCell id="IHHWrMH8fhH2cyxZNXDR-1376" value="Filmek/Sorozatok" style="rounded=0;whiteSpace=wrap;html=1;" vertex="1" parent="1">
          <mxGeometry x="-430" y="420" width="120" height="60" as="geometry" />
        </mxCell>
        <mxCell id="IHHWrMH8fhH2cyxZNXDR-1377" value="" style="rounded=0;whiteSpace=wrap;html=1;" vertex="1" parent="1">
          <mxGeometry x="-640" y="510" width="940" height="340" as="geometry" />
        </mxCell>
        <mxCell id="IHHWrMH8fhH2cyxZNXDR-1379" value="" style="rounded=0;whiteSpace=wrap;html=1;" vertex="1" parent="1">
          <mxGeometry x="-690" y="420" width="60" height="60" as="geometry" />
        </mxCell>
        <mxCell id="IHHWrMH8fhH2cyxZNXDR-1380" value="&lt;div&gt;Logo&lt;/div&gt;" style="text;html=1;align=center;verticalAlign=middle;whiteSpace=wrap;rounded=0;" vertex="1" parent="1">
          <mxGeometry x="-690" y="420" width="60" height="60" as="geometry" />
        </mxCell>
        <mxCell id="IHHWrMH8fhH2cyxZNXDR-1383" value="Rendelési kosár" style="text;html=1;align=center;verticalAlign=middle;whiteSpace=wrap;rounded=0;" vertex="1" parent="1">
          <mxGeometry x="-150" y="460" width="120" height="60" as="geometry" />
        </mxCell>
        <mxCell id="IHHWrMH8fhH2cyxZNXDR-1384" value="Footer (C)" style="text;html=1;align=center;verticalAlign=middle;whiteSpace=wrap;rounded=0;" vertex="1" parent="1">
          <mxGeometry x="-710" y="850" width="1080" height="20" as="geometry" />
        </mxCell>
        <mxCell id="IHHWrMH8fhH2cyxZNXDR-1385" value="margin" style="text;html=1;align=center;verticalAlign=middle;whiteSpace=wrap;rounded=0;" vertex="1" parent="1">
          <mxGeometry x="-710" y="510" width="70" height="340" as="geometry" />
        </mxCell>
        <mxCell id="IHHWrMH8fhH2cyxZNXDR-1386" value="margin" style="text;html=1;align=center;verticalAlign=middle;whiteSpace=wrap;rounded=0;" vertex="1" parent="1">
          <mxGeometry x="300" y="510" width="70" height="340" as="geometry" />
        </mxCell>
        <mxCell id="IHHWrMH8fhH2cyxZNXDR-1387" value="Fiók bej/reg" style="rounded=0;whiteSpace=wrap;html=1;" vertex="1" parent="1">
          <mxGeometry x="275" y="430" width="90" height="40" as="geometry" />
        </mxCell>
        <mxCell id="IHHWrMH8fhH2cyxZNXDR-1388" value="" style="rounded=0;whiteSpace=wrap;html=1;" vertex="1" parent="1">
          <mxGeometry x="140" y="420" width="120" height="60" as="geometry" />
        </mxCell>
        <mxCell id="IHHWrMH8fhH2cyxZNXDR-1389" value="Kapcsolat" style="text;html=1;align=center;verticalAlign=middle;whiteSpace=wrap;rounded=0;" vertex="1" parent="1">
          <mxGeometry x="140" y="420" width="120" height="60" as="geometry" />
        </mxCell>
        <mxCell id="IHHWrMH8fhH2cyxZNXDR-1390" value="Foglalási kosár" style="text;html=1;align=center;verticalAlign=middle;whiteSpace=wrap;rounded=0;" vertex="1" parent="1">
          <mxGeometry y="460" width="120" height="60" as="geometry" />
        </mxCell>
        <mxCell id="IHHWrMH8fhH2cyxZNXDR-1391" value="Kosár" style="rounded=0;whiteSpace=wrap;html=1;" vertex="1" parent="1">
          <mxGeometry x="-150" y="410" width="270" height="60" as="geometry" />
        </mxCell>
        <mxCell id="IHHWrMH8fhH2cyxZNXDR-1392" value="A kosáron belül lesz külön rendelési és foglalási kosár" style="text;html=1;align=center;verticalAlign=middle;whiteSpace=wrap;rounded=0;" vertex="1" parent="1">
          <mxGeometry x="-10" y="320" width="200" height="30" as="geometry" />
        </mxCell>
        <mxCell id="IHHWrMH8fhH2cyxZNXDR-1393" value="" style="endArrow=classic;html=1;rounded=0;entryX=0.37;entryY=0;entryDx=0;entryDy=0;shape=flexArrow;entryPerimeter=0;exitX=0.135;exitY=0.867;exitDx=0;exitDy=0;exitPerimeter=0;" edge="1" parent="1" source="IHHWrMH8fhH2cyxZNXDR-1392" target="IHHWrMH8fhH2cyxZNXDR-1391">
          <mxGeometry width="50" height="50" relative="1" as="geometry">
            <mxPoint x="-130" y="370" as="sourcePoint" />
            <mxPoint x="-250" y="450" as="targetPoint" />
          </mxGeometry>
        </mxCell>
        <mxCell id="IHHWrMH8fhH2cyxZNXDR-1394" value="Foglalási kosár" style="rounded=0;whiteSpace=wrap;html=1;" vertex="1" parent="1">
          <mxGeometry x="-620" y="530" width="260" height="70" as="geometry" />
        </mxCell>
        <mxCell id="IHHWrMH8fhH2cyxZNXDR-1395" value="Helyben vagy online foglal?" style="rounded=0;whiteSpace=wrap;html=1;" vertex="1" parent="1">
          <mxGeometry x="-268" y="585" width="260" height="60" as="geometry" />
        </mxCell>
        <mxCell id="IHHWrMH8fhH2cyxZNXDR-1396" value="Helyben foglalok" style="rounded=0;whiteSpace=wrap;html=1;" vertex="1" parent="1">
          <mxGeometry x="-380" y="670" width="160" height="120" as="geometry" />
        </mxCell>
        <mxCell id="IHHWrMH8fhH2cyxZNXDR-1397" value="Online foglalok" style="rounded=0;whiteSpace=wrap;html=1;" vertex="1" parent="1">
          <mxGeometry x="-95" y="670" width="160" height="120" as="geometry" />
        </mxCell>
        <mxCell id="IHHWrMH8fhH2cyxZNXDR-1398" value="Foglalások" style="rounded=0;whiteSpace=wrap;html=1;" vertex="1" parent="1">
          <mxGeometry x="-290" y="420" width="120" height="60" as="geometry" />
        </mxCell>
      </root>
    </mxGraphModel>
  </diagram>
</mxfile>
